<svg viewBox="0 0 64 64" xmlns="http://www.w3.org/2000/svg">
  <defs>
    <linearGradient id="shield-grad" x1="0%" y1="0%" x2="100%" y2="100%">
      <stop offset="0%" stop-color="#f59e0b"/>
      <stop offset="50%" stop-color="#fcd34d"/>
      <stop offset="100%" stop-color="#10b981"/>
    </linearGradient>
  </defs>

  <!-- Modern shield/proof mark with nested structure -->

  <!-- Outer shield shape -->
  <path
    d="M32 4 C44 4 54 10 54 10 L54 32 C54 48 32 60 32 60 C32 60 10 48 10 32 L10 10 C10 10 20 4 32 4 Z"
    fill="none"
    stroke="url(#shield-grad)"
    stroke-width="2.5"
    stroke-linejoin="round"/>

  <!-- Inner nested structure - three layers -->
  <path
    d="M32 14 C40 14 46 18 46 18 L46 32 C46 42 32 50 32 50 C32 50 18 42 18 32 L18 18 C18 18 24 14 32 14 Z"
    fill="none"
    stroke="url(#shield-grad)"
    stroke-width="1.5"
    stroke-linejoin="round"
    opacity="0.6"/>

  <path
    d="M32 24 C36 24 40 26 40 26 L40 34 C40 40 32 44 32 44 C32 44 24 40 24 34 L24 26 C24 26 28 24 32 24 Z"
    fill="none"
    stroke="url(#shield-grad)"
    stroke-width="1"
    stroke-linejoin="round"
    opacity="0.4"/>

  <!-- Checkmark in center -->
  <path
    d="M26 33 L30 37 L38 28"
    fill="none"
    stroke="#8b5cf6"
    stroke-width="3"
    stroke-linecap="round"
    stroke-linejoin="round"/>
</svg>
